<svg id="visual" viewBox="0 0 900 600" width="900" height="600" xmlns="http://www.w3.org/2000/svg" xmlns:xlink="http://www.w3.org/1999/xlink" version="1.1"><rect x="0" y="0" width="900" height="600" fill="#009AD5"></rect><defs><linearGradient id="grad1_0" x1="33.3%" y1="0%" x2="100%" y2="100%"><stop offset="20%" stop-color="#009ad5" stop-opacity="1"></stop><stop offset="80%" stop-color="#009ad5" stop-opacity="1"></stop></linearGradient></defs><defs><linearGradient id="grad2_0" x1="0%" y1="0%" x2="66.7%" y2="100%"><stop offset="20%" stop-color="#009ad5" stop-opacity="1"></stop><stop offset="80%" stop-color="#009ad5" stop-opacity="1"></stop></linearGradient></defs><g transform="translate(900, 0)"><path d="M0 405.6C-43.5 369.4 -87 333.1 -128.2 309.5C-169.4 285.9 -208.4 274.8 -253.1 253.1C-297.9 231.5 -348.4 199.2 -374.7 155.2C-401.1 111.3 -403.4 55.6 -405.6 0L0 0Z" fill="#008ECF"></path></g><g transform="translate(0, 600)"><path d="M0 -405.6C49.1 -386 98.1 -366.3 142.7 -344.6C187.4 -322.9 227.6 -299.1 268.7 -268.7C309.8 -238.3 351.8 -201.1 374.7 -155.2C397.7 -109.3 401.7 -54.7 405.6 0L0 0Z" fill="#008ECF"></path></g></svg>