<!--?xml version="1.0" standalone="no"?-->
              <svg id="sw-js-blob-svg" viewBox="0 0 100 100" xmlns="http://www.w3.org/2000/svg" version="1.1">
                    <defs> 
                        <linearGradient id="sw-gradient" x1="0" x2="1" y1="1" y2="0">
                            <stop id="stop1" stop-color="rgba(55, 248, 166.813, 1)" offset="0%"></stop>
                            <stop id="stop2" stop-color="rgba(31, 91.376, 251, 1)" offset="100%"></stop>
                        </linearGradient>
                    </defs>
                <path fill="url(#sw-gradient)" d="M24.6,-30.4C30.3,-24.6,32.1,-15.3,33.8,-5.9C35.5,3.4,37.1,12.9,33.4,19.3C29.7,25.7,20.8,29.1,12.3,31C3.8,33,-4.3,33.4,-11.3,30.9C-18.4,28.5,-24.5,23,-29.4,16.2C-34.3,9.3,-38.1,1,-37.9,-7.9C-37.8,-16.7,-33.7,-25.9,-26.7,-31.5C-19.7,-37.1,-9.8,-39,-0.2,-38.7C9.5,-38.5,18.9,-36.2,24.6,-30.4Z" width="100%" height="100%" transform="translate(50 50)" stroke-width="0" style="transition: all 0.3s ease 0s;" stroke="url(#sw-gradient)"></path>
              </svg>